<svg width="82" height="82" viewBox="0 0 82 82" fill="none" xmlns="http://www.w3.org/2000/svg">
<path d="M73.4311 20.869V61.131C73.4311 67.9206 67.9207 73.431 61.1311 73.431H20.8691C14.0795 73.431 8.56909 67.9206 8.56909 61.131V20.869C8.56909 14.0794 14.0795 8.56897 20.8691 8.56897H61.1311C67.9207 8.56897 73.4311 14.0794 73.4311 20.869Z" fill="url(#paint0_linear)"/>
<path d="M58.7287 71.1924H23.2719C16.4003 71.1924 10.8079 65.6 10.8079 58.7284V23.2716C10.8079 16.4 16.4003 10.8076 23.2719 10.8076H58.7369C65.6084 10.8076 71.2008 16.4 71.2008 23.2716V58.7366C71.1926 65.6 65.6003 71.1924 58.7287 71.1924ZM23.2719 11.1356C16.5807 11.1356 11.1359 16.5804 11.1359 23.2716V58.7366C11.1359 65.4278 16.5807 70.8726 23.2719 70.8726H58.7369C65.428 70.8726 70.8728 65.4278 70.8728 58.7366V23.2716C70.8728 16.5804 65.428 11.1356 58.7369 11.1356H23.2719Z" fill="white"/>
<path d="M29.9054 45.1H20.0654C18.9338 45.1 18.0154 44.1816 18.0154 43.05V27.06C18.0154 25.9284 18.9338 25.01 20.0654 25.01H29.9054C31.037 25.01 31.9554 25.9284 31.9554 27.06V43.05C31.9554 44.1816 31.037 45.1 29.9054 45.1Z" fill="url(#paint1_linear)"/>
<path d="M52.0947 25.01H61.9347C63.0663 25.01 63.9847 25.9284 63.9847 27.06V54.94C63.9847 56.0716 63.0663 56.99 61.9347 56.99H52.0947C50.9631 56.99 50.0447 56.0716 50.0447 54.94V27.06C50.0447 25.9284 50.9631 25.01 52.0947 25.01Z" fill="url(#paint2_linear)"/>
<path d="M36.08 25.01H45.92C47.0516 25.01 47.97 25.9284 47.97 27.06V54.94C47.97 56.0716 47.0516 56.99 45.92 56.99H36.08C34.9484 56.99 34.03 56.0716 34.03 54.94V27.06C34.03 25.9284 34.9484 25.01 36.08 25.01Z" fill="url(#paint3_linear)"/>
<defs>
<linearGradient id="paint0_linear" x1="41.0001" y1="73.431" x2="41.0001" y2="8.56897" gradientUnits="userSpaceOnUse">
<stop stop-color="#0D877A"/>
<stop offset="1" stop-color="#53D6C5"/>
</linearGradient>
<linearGradient id="paint1_linear" x1="24.9819" y1="28.8099" x2="24.9819" y2="41.9882" gradientUnits="userSpaceOnUse">
<stop stop-color="white"/>
<stop offset="1" stop-color="#D4FFFE"/>
</linearGradient>
<linearGradient id="paint2_linear" x1="52.2484" y1="49.2615" x2="61.8335" y2="32.6596" gradientUnits="userSpaceOnUse">
<stop stop-color="white"/>
<stop offset="1" stop-color="#D4FFFE"/>
</linearGradient>
<linearGradient id="paint3_linear" x1="36.2303" y1="49.2615" x2="45.8154" y2="32.6596" gradientUnits="userSpaceOnUse">
<stop stop-color="white"/>
<stop offset="1" stop-color="#D4FFFE"/>
</linearGradient>
</defs>
</svg>
